<svg xmlns="http://www.w3.org/2000/svg" viewBox="0 0 48 48" style="enable-background:new 0 0 48 48" xml:space="preserve"><style>.st1{fill:#ffc258}.st2{fill:#4f4b45}.st3{fill:#fabfa5}.st7{fill:#f0d5a8}.st10{fill:none;stroke:#45413c;stroke-linecap:round;stroke-linejoin:round;stroke-miterlimit:10}.st65{fill:#fffef2}</style><symbol id="New_Symbol_14" viewBox="-6.5 -6.5 13 13"><path d="M0-6c2.2 0 4.1 1.5 4.7 3.5 0 0 0 0 0 0C6.3-2.5 6.4 0 5 0v1c0 2.8-2.2 5-5 5s-5-2.2-5-5V0c-1.4 0-1.3-2.5.2-2.5 0 0 0 0 0 0C-4.1-4.5-2.2-6 0-6z" style="fill:#ffd4c3;stroke:#504b46;stroke-linecap:round;stroke-linejoin:round;stroke-miterlimit:10"/><circle class="st1" cx="-1.6" cy="-.1" r=".1"/><path class="st2" d="M-1.6.5c-.3 0-.6-.3-.6-.6s.2-.7.6-.7c.3 0 .6.3.6.7s-.3.6-.6.6z"/><circle class="st1" cx="1.6" cy="-.1" r=".1"/><path class="st2" d="M1.6.5C1.3.5 1 .2 1-.1s.3-.6.6-.6.6.3.6.6-.2.6-.6.6z"/><circle class="st3" cx="-3" cy="-1.5" r=".5"/><circle class="st3" cx="3" cy="-1.5" r=".5"/><path d="M-1.2-3c.8-.5 1.7-.5 2.5 0" style="fill:none;stroke:#504b46;stroke-linecap:round;stroke-linejoin:round;stroke-miterlimit:10"/></symbol><g id="Icons"><g id="XMLID_1885_"><ellipse id="XMLID_241_" cx="24" cy="44.3" rx="9.5" ry="1.5" style="opacity:.15;fill:#45413c"/><g id="XMLID_238_"><g id="XMLID_250_"><g id="XMLID_1766_"><path id="XMLID_210_" class="st7" d="M31 30.7H17c-.4 0-.8-.3-.9-.7l-.9-3.6c-.1-.6.3-1.1.9-1.1h15.8c.6 0 1 .6.9 1.1l-.9 3.6c-.1.4-.5.7-.9.7z"/><path id="XMLID_209_" d="M15.5 27.5h17l.3-1.1c.1-.6-.3-1.1-.9-1.1H16.1c-.6 0-1 .6-.9 1.1l.3 1.1z" style="fill:#f7e5c6"/><path id="XMLID_208_" class="st10" d="M31 30.7H17c-.4 0-.8-.3-.9-.7l-.9-3.6c-.1-.6.3-1.1.9-1.1h15.8c.6 0 1 .6.9 1.1l-.9 3.6c-.1.4-.5.7-.9.7z"/></g><g id="XMLID_1761_"><path id="XMLID_207_" class="st7" d="M26.2 44.3h-4.3c-1.4 0-2.5-1-2.7-2.4l-1.5-11.2h12.7l-1.5 11.2c-.2 1.4-1.4 2.4-2.7 2.4z"/><path id="XMLID_206_" style="fill:#debb7e" d="m30 33 .4-2.3H17.6L18 33z"/><path id="XMLID_205_" class="st10" d="M26.2 44.3h-4.3c-1.4 0-2.5-1-2.7-2.4l-1.5-11.2h12.7l-1.5 11.2c-.2 1.4-1.4 2.4-2.7 2.4z"/></g></g><g id="XMLID_239_"><g id="XMLID_246_"><path id="XMLID_204_" class="st65" d="M33 15.6c.3-.5.5-1.1.5-1.7 0-1.8-1.4-3.2-3.2-3.2h-1.2c.4-.5.7-1.1.7-1.8 0-1.5-1.2-2.7-2.7-2.7h-1.4c-2 0-3.4-2.2-2.4-4.1-3 .3-5.4 2.8-5.4 5.9 0 .8.2 2.1.5 2.7h-.9c-1.8 0-3.2 1.4-3.2 3.2 0 .6.2 1.2.5 1.7-1.9.7-3.2 2.5-3.2 4.7 0 2.8 2.2 5 5 5h14.5c2.8 0 5-2.2 5-5 .2-2.2-1.2-4-3.1-4.7z"/><path id="XMLID_203_" d="M14.5 22.1c0-2.1 1.3-3.9 3.2-4.7-.3-.5-.5-1.1-.5-1.7 0-1.8 1.4-3.2 3.2-3.2h.9c-.3-.7-.5-1.9-.5-2.7 0-2.1 1.1-3.9 2.7-4.9-.5-.8-.6-1.8 0-2.8-3 .3-5.4 2.8-5.4 5.9 0 .8.2 2.1.5 2.7h-.9c-1.8 0-3.2 1.4-3.2 3.2 0 .6.2 1.2.5 1.7-1.9.7-3.2 2.5-3.2 4.7 0 2.3 1.6 4.3 3.7 4.8-.6-.8-1-1.9-1-3z" style="fill:#fff"/><path id="XMLID_202_" class="st10" d="M33 15.6c.3-.5.5-1.1.5-1.7 0-1.8-1.4-3.2-3.2-3.2h-1.2c.4-.5.7-1.1.7-1.8 0-1.5-1.2-2.7-2.7-2.7h-1.4c-2 0-3.4-2.2-2.4-4.1-3 .3-5.4 2.8-5.4 5.9 0 .8.2 2.1.5 2.7h-.9c-1.8 0-3.2 1.4-3.2 3.2 0 .6.2 1.2.5 1.7-1.9.7-3.2 2.5-3.2 4.7 0 2.8 2.2 5 5 5h14.5c2.8 0 5-2.2 5-5 .2-2.2-1.2-4-3.1-4.7z"/></g><path id="XMLID_201_" class="st10" d="M31.7 18.9v1.4c0 .8-.6 1.4-1.4 1.4S29 21 29 20.3v-3.2"/><path id="XMLID_200_" class="st10" d="M23.5 13.5v2.3c0 .8-.6 1.4-1.4 1.4s-1.4-.6-1.4-1.4v-.9"/><g id="XMLID_240_"><path id="XMLID_187_" class="st65" d="M19.9 24.3v2.3c0 .8-.6 1.4-1.4 1.4s-1.4-.6-1.4-1.4v-2.3h2.8z"/><path id="XMLID_184_" class="st10" d="M19.9 25.3v1.4c0 .8-.6 1.4-1.4 1.4s-1.4-.6-1.4-1.4v-2.3"/></g></g></g></g></g></svg>